<svg id="Шар_2" data-name="Шар 2" xmlns="http://www.w3.org/2000/svg" viewBox="0 0 317.54 324.08"><path d="M127.76,67.49c0-7.33,0-14.07,0-20.8,0-6.36,2.2-8.48,8.6-8.5h18c7,0,9,2,9,9.22V67.17h20.92q0-10.11,0-20.15c0-6.92,1.94-8.82,8.92-8.83,6.36,0,12.72,0,19.09,0,5,0,7.31,2.42,7.36,7.38.08,7,.07,14,.11,21a2.85,2.85,0,0,0,.24.63h20.61c0-6.84,0-13.66,0-20.49,0-6.36,2.16-8.48,8.57-8.5s12.73,0,19.09,0c5.44,0,7.69,2.25,7.76,7.75.07,5.86,0,11.73,0,17.59v3.74h21c0-6.78,0-13.35,0-19.93,0-7.19,2-9.15,9.05-9.16,6.24,0,12.48,0,18.72,0,5.36,0,7.72,2.39,7.76,7.82.06,7,0,13.95,0,21.47,5.28,0,10.35-.13,15.41,0,5.46.18,11.08-.08,16.35,1.13,15.16,3.46,24.54,16.3,24.55,32.82q.06,85,0,170c0,18.84,0,37.69,0,56.53,0,20.56-13.73,34.25-34.3,34.26q-124.46,0-248.92,0c-20.5,0-34.29-13.83-34.29-34.3q0-113.07,0-226.13c0-20.51,13.79-34.28,34.27-34.31ZM84.23,145.26v3.79q0,89.47,0,179c0,13.21,8,21.19,21.22,21.19q124.65,0,249.28,0c13.49,0,21.32-7.92,21.33-21.45q0-89.28,0-178.57v-3.92ZM332.58,80.85v4.34c0,7.61,0,15.22,0,22.83,0,4.61-2.08,7.37-6.09,7.48-7.85.21-15.72.17-23.57,0-3.27-.08-5.21-2.24-5.68-5.46a36.29,36.29,0,0,1-.19-5.22c0-8,0-15.93,0-24h-21c0,9.29.05,18.26,0,27.23,0,5.32-2.24,7.57-7.47,7.64q-10.29.13-20.58,0c-5-.07-7.32-2.45-7.36-7.41-.06-8,0-16,0-24,0-1.19-.14-2.38-.21-3.58H219.67V85c0,7.86,0,15.72,0,23.58,0,4.3-2.12,6.88-6.14,7q-11.59.3-23.19,0c-3.75-.1-5.88-2.53-6-6.35-.13-5.48-.05-11-.06-16.47v-12H163.36v3.84c0,7.61,0,15.22,0,22.83,0,6.12-2.21,8.29-8.38,8.33-5.87,0-11.73,0-17.59,0-7.91,0-9.62-1.74-9.62-9.74V80.56c-8.71,0-17.06-.37-25.36.1-10.61.6-18,8.84-18.15,19.62-.11,7.49,0,15,0,22.46v9H376c0-11.3.27-22.27-.09-33.22-.28-8.79-7.21-16.81-15.69-17.49C351.23,80.28,342.11,80.85,332.58,80.85ZM197.39,51.26v51.1h9.2V51.26Zm112.9,0v51.2h9V51.25Zm-47.36.15h-9.19v51.05h9.19ZM150.1,102.51V51.31h-9v51.2Z" transform="translate(-71.38 -38.17)"/><path d="M125.83,155.67c6.23,0,12.46,0,18.7,0,5,0,7.44,2.29,7.49,7.27q.15,16.65,0,33.3c0,5.13-2.52,7.41-7.75,7.42q-18.51,0-37,0c-5.23,0-7.54-2.27-7.57-7.49q-.09-16.47,0-32.92c0-5.45,2.24-7.56,7.83-7.59C113.61,155.64,119.72,155.66,125.83,155.67Zm-13,13v21.92h25.87V168.62Z" transform="translate(-71.38 -38.17)"/><path d="M126,273c6.11,0,12.22-.05,18.33,0,5.26.06,7.63,2.31,7.67,7.5q.12,16.46,0,32.93c0,5.29-2.54,7.67-7.95,7.69q-18.33.08-36.66,0c-5.42,0-7.73-2.36-7.76-7.79q-.06-16.46,0-32.92c0-5.08,2.25-7.34,7.28-7.41C113.31,272.93,119.67,273,126,273Zm-13.36,34.87h26V286.2h-26Z" transform="translate(-71.38 -38.17)"/><path d="M261,262.33c-6.24,0-12.47.07-18.71,0-4.87-.07-7.19-2.27-7.23-7.07q-.15-17,0-34c0-4.51,2.52-6.91,7-6.94q19.08-.13,38.16,0c4.49,0,7,2.44,7.09,6.94q.19,17.22,0,34.42c-.06,4.37-2.5,6.6-6.89,6.68C274,262.41,267.52,262.33,261,262.33Zm-12.8-35v21.86h25.9V227.32Z" transform="translate(-71.38 -38.17)"/><path d="M261.55,155.67c6.24,0,12.47-.06,18.7,0,4.61.05,7.09,2.24,7.14,6.81q.23,17.2,0,34.41c-.06,4.49-2.65,6.74-7.24,6.75q-18.88.08-37.77,0c-4.8,0-7.24-2.29-7.28-7q-.15-17,0-34c.05-4.6,2.42-6.85,7-6.9C248.59,155.61,255.07,155.67,261.55,155.67Zm12.63,35v-22H248.29v22Z" transform="translate(-71.38 -38.17)"/><path d="M125.66,262.34c-6.24,0-12.47.06-18.71,0-5-.06-7.25-2.3-7.28-7.39q-.09-16.65,0-33.3c0-5,2.41-7.35,7.37-7.37q18.7-.1,37.41,0c5.1,0,7.54,2.48,7.58,7.66q.12,16.46,0,32.92c-.05,5.19-2.42,7.44-7.67,7.5C138.13,262.39,131.89,262.34,125.66,262.34Zm-13-13.24h26.16V227.42H112.65Z" transform="translate(-71.38 -38.17)"/><path d="M261.47,273c6.11,0,12.22-.05,18.33,0,5.27.06,7.59,2.26,7.63,7.51q.13,16.46,0,32.93c0,5.33-2.5,7.66-7.93,7.68q-18.33.08-36.66,0c-5.4,0-7.73-2.36-7.76-7.79q-.11-16.28,0-32.55c0-5.54,2.22-7.73,7.69-7.79C249,273,255.24,273,261.47,273Zm12.8,13.18h-26v21.73h26Z" transform="translate(-71.38 -38.17)"/><path d="M328.89,262.33c-6.24,0-12.47.06-18.71,0-5.2-.07-7.43-2.37-7.45-7.64q-.06-16.47,0-32.94c0-4.94,2.43-7.46,7.3-7.49q18.9-.1,37.8,0c4.73,0,7.23,2.5,7.27,7.15q.11,16.85,0,33.69c0,4.77-2.37,7.14-7.13,7.22C341.61,262.4,335.25,262.33,328.89,262.33Zm13.16-34.92H315.81v21.71h26.24Z" transform="translate(-71.38 -38.17)"/><path d="M193.74,273c6.11,0,12.22-.05,18.33,0,5.31.06,7.56,2.3,7.58,7.51q.06,16.46,0,32.93c0,5.19-2.36,7.64-7.51,7.67q-18.7.11-37.42,0c-4.94,0-7.41-2.53-7.44-7.41q-.1-16.67,0-33.31c0-5,2.39-7.32,7.37-7.39C181,272.94,187.38,273,193.74,273Zm-13.39,13.08v21.85h26.23V286.08Z" transform="translate(-71.38 -38.17)"/><path d="M329.3,273c6.12,0,12.23-.06,18.34,0,5.2.07,7.45,2.39,7.47,7.65q.06,16.47,0,32.93c0,4.93-2.44,7.49-7.32,7.52q-18.9.13-37.79,0c-4.88,0-7.25-2.6-7.27-7.55q-.06-16.65,0-33.31c0-4.77,2.33-7.15,7.1-7.23C316.33,272.93,322.82,273,329.3,273ZM342,307.94V286.22H315.74v21.72Z" transform="translate(-71.38 -38.17)"/><path d="M193.29,262.33c-6.24,0-12.48.07-18.71,0-5-.07-7.28-2.44-7.3-7.44q-.09-16.47,0-32.94c0-5.18,2.43-7.66,7.53-7.68q18.7-.09,37.42,0c5,0,7.4,2.43,7.43,7.34q.07,16.85,0,33.68c0,4.58-2.33,7-6.9,7C206.26,262.41,199.77,262.33,193.29,262.33Zm13.34-34.9H180.42v21.68h26.21Z" transform="translate(-71.38 -38.17)"/><path d="M193.45,155.67c6.35,0,12.71-.06,19.07,0,4.75.05,7.1,2.4,7.12,7.18q.09,16.83,0,33.67c0,4.69-2.48,7.1-7.22,7.12q-18.88.08-37.78,0c-4.9,0-7.33-2.45-7.36-7.41q-.09-16.65,0-33.3c0-4.9,2.48-7.24,7.46-7.28C181,155.62,187.21,155.67,193.45,155.67Zm13.06,35.08V168.7h-26v22.05Z" transform="translate(-71.38 -38.17)"/><path d="M329,155.67c6.11,0,12.22,0,18.33,0,5.48,0,7.81,2.29,7.83,7.66q.06,16.28,0,32.55c0,5.44-2.34,7.78-7.73,7.79q-18.53,0-37,0c-5.2,0-7.6-2.36-7.62-7.51q-.06-16.46,0-32.92c0-5.22,2.32-7.52,7.52-7.56C316.49,155.63,322.72,155.67,329,155.67Zm-13.09,13v22H342v-22Z" transform="translate(-71.38 -38.17)"/></svg>