<svg id="Шар_1" data-name="Шар 1" xmlns="http://www.w3.org/2000/svg" viewBox="0 0 383.26 269.49"><path d="M405.21,256.94c-1.2,3.52-2,7.24-3.68,10.51-6,11.73-15.87,17.83-29,18.65-1,.06-2,0-3,0H57.12c-16.69,0-29.92-9.73-33.92-25.06a38.37,38.37,0,0,1-1.19-9.6q-.11-100.08,0-200.16c0-20.08,14.64-34.63,34.79-34.64q156.77,0,313.52,0c17.56,0,30.37,10.33,34.29,27.45a13.85,13.85,0,0,0,.64,1.73ZM61.1,39.29c1.27,1.32,2,2.14,2.81,2.93q69.35,69.56,138.58,139.23c6.6,6.69,15.77,6.51,22.14.07q69-69.87,138.58-139.24c.84-.84,1.61-1.74,2.75-3ZM61,263.34H366.21l-96.32-95.48c-.73.7-1.72,1.61-2.67,2.56-9.34,9.36-18.64,18.77-28,28.09-14.7,14.61-36.53,14.6-51.22,0-5.66-5.63-11.26-11.32-16.9-17-4.65-4.66-9.32-9.31-13.76-13.75ZM44.63,56.12V246.6l96.14-95.24ZM382.44,246.73V56.6l-96,95Z" transform="translate(-21.95 -16.65)"/></svg>