<svg id="Шар_1" data-name="Шар 1" xmlns="http://www.w3.org/2000/svg" viewBox="0 0 223.61 383.38"><path d="M272.44,5.69c2.74.78,5.53,1.4,8.2,2.36,14.1,5,22.7,17,22.7,31.88q.07,157.38,0,314.75c0,19.22-14.85,33.94-34.66,34.24-19.21.29-38.43.09-57.64.09q-47.17,0-94.33,0c-12.44,0-22.9-4.42-30.63-14.41a28.9,28.9,0,0,1-6.22-17.3c0-1.87-.08-3.74-.08-5.61V43.3c0-20.87,9.38-32.48,30-37.09M147.4,17.67c-10.7,0-20.91-.05-31.12,0C100.9,17.78,91.76,27,91.76,42.43v309.9c0,1.49,0,3,.06,4.49A18.16,18.16,0,0,0,96.91,369c5.21,5.66,11.83,8.07,19.42,8.07q75.24,0,150.49,0c15.4,0,24.57-9.34,24.57-24.69V129.62q0-44.71,0-89.45c0-10-5.21-17.5-14.64-20.75a32.46,32.46,0,0,0-9.88-1.67c-10.6-.21-21.21-.08-31.82-.07-1,0-1.92.14-3.2.23,0,2.16,0,4.13,0,6.1s.07,4,0,6c-.2,4.37-2.2,6.65-6.42,6.66q-35.74.12-71.5,0c-4.27,0-6.38-2.3-6.47-6.56C147.33,26.14,147.4,22.16,147.4,17.67Z" transform="translate(-79.78 -5.69)"/><path d="M191.06,356.85H155.18c-5.22,0-7.79-1.94-7.85-5.86s2.58-6.1,7.66-6.11q36.44,0,72.87,0c5.14,0,8,2.92,7.19,7.21-.57,3.08-2.94,4.74-7,4.75Q209.56,356.87,191.06,356.85Z" transform="translate(-79.78 -5.69)"/></svg>