<svg id="Шар_1" data-name="Шар 1" xmlns="http://www.w3.org/2000/svg" viewBox="0 0 57.56 78.02"><path d="M40.53,2.4c.75.09,1.51.17,2.26.28C52.31,4.09,59.56,9,64.16,17.38A27.53,27.53,0,0,1,65,43.22a135.52,135.52,0,0,1-15.3,24.67c-3,4-6.13,7.77-9.23,11.63-.94,1.18-2,1.18-2.92.06a201.62,201.62,0,0,1-20-27.68A71.08,71.08,0,0,1,12,40.84a26.87,26.87,0,0,1-1.23-14.69C12.71,16,18.5,8.91,27.84,4.68A25.65,25.65,0,0,1,36.9,2.51c.19,0,.39-.08.59-.11ZM39,46A14.91,14.91,0,1,0,24.09,31.13,14.95,14.95,0,0,0,39,46Z" transform="translate(-10.26 -2.4)"/></svg>