<svg id="Шар_1" data-name="Шар 1" xmlns="http://www.w3.org/2000/svg" viewBox="0 0 306.58 306.58"><path d="M170.31,13.42c7.81,2.52,10.75,8,10.4,16-.33,7.67,0,15.36-.18,23a12.61,12.61,0,0,1-24.11,4.58,18.85,18.85,0,0,1-1.19-6.68c-.15-7,.2-14-.12-20.94-.36-8,2.59-13.49,10.4-16Z" transform="translate(-14.61 -13.42)"/><path d="M14.61,164.33c2.52-7.81,8-10.75,16-10.41,7.66.34,15.36,0,23,.19a12.6,12.6,0,0,1,4.58,24.1,18.54,18.54,0,0,1-6.67,1.19c-7,.15-14-.19-20.94.12-8,.37-13.49-2.59-16-10.4Z" transform="translate(-14.61 -13.42)"/><path d="M167.89,249.78c-45.65-.08-83.11-37.56-83-83.08s37.55-83.1,83.07-83,83.1,37.55,83,83.08S213.41,249.85,167.89,249.78Zm-.08-140.53a57.48,57.48,0,1,0,57.58,57.44A57.66,57.66,0,0,0,167.81,109.25Z" transform="translate(-14.61 -13.42)"/><path d="M68.61,54.66a12.43,12.43,0,0,1,9.13,3.86c6,5.9,12,11.76,17.76,17.81,5.13,5.35,5.08,13.06.18,18a12.64,12.64,0,0,1-18,.07q-9.51-9.11-18.57-18.67C55.39,71.85,54.79,67,57,62.13S63.24,54.8,68.61,54.66Z" transform="translate(-14.61 -13.42)"/><path d="M280,67.44a12.44,12.44,0,0,1-3.87,9.12c-5.9,6-11.76,12-17.81,17.76-5.35,5.12-13.06,5.07-18,.17a12.64,12.64,0,0,1-.06-18q9.1-9.51,18.67-18.57c3.91-3.69,8.74-4.29,13.63-2.07S279.83,62.06,280,67.44Z" transform="translate(-14.61 -13.42)"/><path d="M70,278.87c-6.74-.25-10.68-2.63-12.92-7.37s-2-9.43,1.51-13.17c6.52-7,13.28-13.82,20.32-20.29,4.66-4.28,12.1-3.53,16.62.91s5.37,12.09,1,16.83c-6.48,7-13.32,13.76-20.33,20.28C74.33,277.81,71.3,278.32,70,278.87Z" transform="translate(-14.61 -13.42)"/><path d="M280,264.49c-.18,6.75-2.52,10.72-7.25,13s-9.57,2-13.41-1.57c-6.92-6.46-13.67-13.14-20.08-20.11-4.38-4.75-3.62-12.31,1-16.84s12.09-5.19,16.85-.78c6.95,6.43,13.61,13.2,20.06,20.14C278.92,260.21,279.47,263.22,280,264.49Z" transform="translate(-14.61 -13.42)"/><path d="M295.5,179.4c-4.39,0-8.77.15-13.15,0a12.64,12.64,0,0,1-.12-25.25q13.44-.33,26.89,0a12.64,12.64,0,0,1-.18,25.26C304.46,179.55,300,179.4,295.5,179.4Z" transform="translate(-14.61 -13.42)"/><path d="M180.61,294.58c0,4.29.12,8.57,0,12.85a12.67,12.67,0,0,1-25.33-.07q-.27-12.84,0-25.69A12.45,12.45,0,0,1,167.94,269c7.1,0,12.43,5.3,12.66,12.73.13,4.27,0,8.56,0,12.84Z" transform="translate(-14.61 -13.42)"/></svg>